<?xml version="1.0" standalone="no"?>
<!DOCTYPE svg PUBLIC "-//W3C//DTD SVG 20010904//EN"
 "http://www.w3.org/TR/2001/REC-SVG-20010904/DTD/svg10.dtd">
<svg version="1.0" xmlns="http://www.w3.org/2000/svg"
 width="390.000000pt" height="284.000000pt" viewBox="0 0 390.000000 284.000000"
 preserveAspectRatio="xMidYMid meet">

<g transform="translate(0.000000,284.000000) scale(0.100000,-0.100000)"
fill="#000000" stroke="none">
<path d="M1933 2727 c-34 -12 -67 -26 -72 -32 -5 -5 -44 -79 -85 -162 -42 -84
-81 -153 -88 -153 -7 0 -76 45 -153 99 l-140 99 -45 -33 c-25 -18 -44 -37 -43
-40 1 -4 73 -58 160 -119 109 -77 159 -118 161 -133 2 -11 -33 -93 -77 -182
-76 -151 -82 -160 -103 -152 -13 5 -106 61 -208 124 -200 126 -188 123 -215
48 l-14 -40 145 -91 c79 -50 144 -97 144 -104 0 -7 -68 -32 -166 -61 l-166
-48 6 -56 c4 -30 8 -57 10 -59 2 -2 73 17 158 42 84 25 172 49 195 54 42 10
43 10 36 -15 -3 -14 -56 -130 -118 -257 -79 -162 -110 -236 -104 -246 17 -29
68 -85 73 -80 3 3 68 136 145 295 77 160 146 291 153 293 19 3 432 -261 436
-279 2 -9 -106 -77 -328 -204 l-330 -189 26 -27 c60 -62 43 -67 350 108 154
88 287 163 297 166 26 10 23 -21 -28 -273 -25 -123 -45 -225 -45 -227 0 -2 28
-3 63 -3 l62 0 54 270 c30 149 58 270 63 270 5 0 19 -6 31 -14 12 -7 116 -73
230 -146 205 -129 209 -131 229 -113 11 10 29 30 39 44 l19 27 -133 82 c-237
148 -328 211 -324 223 5 16 308 189 322 184 6 -3 78 -52 160 -111 l149 -106
18 43 c9 23 17 49 17 58 1 9 -45 48 -109 93 -60 42 -110 83 -110 91 0 7 55 47
123 88 l122 75 -3 49 c-2 26 -7 53 -11 60 -4 9 -60 -18 -180 -87 -95 -55 -177
-100 -183 -100 -5 0 -72 44 -149 98 -103 72 -138 102 -137 116 3 15 53 33 287
102 156 46 286 86 288 88 3 2 -7 27 -22 56 -19 38 -30 50 -43 46 -370 -108
-474 -137 -478 -133 -4 4 80 461 91 495 3 8 -16 22 -51 38 -31 14 -57 24 -59
22 -1 -2 -29 -138 -61 -302 -75 -378 -53 -360 -263 -210 -83 58 -151 113 -151
120 0 8 32 78 71 157 92 182 140 287 131 286 -4 0 -35 -10 -69 -22z m-83 -609
c49 -35 90 -68 90 -74 0 -13 -297 -100 -307 -90 -10 10 99 226 115 226 7 0 53
-28 102 -62z m257 -186 c19 -12 -55 -382 -76 -382 -21 0 -401 243 -401 256 0
12 398 132 440 133 14 0 31 -3 37 -7z m229 -159 c46 -32 84 -63 84 -70 0 -10
-177 -118 -222 -136 -24 -9 -23 9 4 150 15 79 26 113 36 113 8 0 51 -26 98
-57z"/>
</g>
</svg>
